<?xml version="1.0" encoding="UTF-8" standalone="no"?>
<!-- Created with Inkscape (http://www.inkscape.org/) -->

<svg
   xmlns:dc="http://purl.org/dc/elements/1.1/"
   xmlns:cc="http://creativecommons.org/ns#"
   xmlns:rdf="http://www.w3.org/1999/02/22-rdf-syntax-ns#"
   xmlns:svg="http://www.w3.org/2000/svg"
   xmlns="http://www.w3.org/2000/svg"
   xmlns:sodipodi="http://sodipodi.sourceforge.net/DTD/sodipodi-0.dtd"
   xmlns:inkscape="http://www.inkscape.org/namespaces/inkscape"
   width="744.09448819"
   height="1052.3622047"
   id="svg2"
   version="1.1"
   inkscape:version="0.48.4 r9939"
   sodipodi:docname="logo1-final2.svg">
  <defs
     id="defs4">
    <clipPath
       clipPathUnits="userSpaceOnUse"
       id="clipPath7850">
      <g
         transform="translate(-217.45268,-141.36632)"
         style="display:inline"
         id="g7852">
        <path
           inkscape:connector-curvature="0"
           id="path7854"
           d="m 220.03586,885.81686 -91.3125,86.28125 c 1.51072,1.30287 3.04701,2.5618 4.625,3.8125 51.74692,41.01419 124.90806,41.13559 176.78125,0.28125 l -90.09375,-90.375 z"
           style="fill:#88aa00;fill-opacity:1;display:inline" />
        <path
           sodipodi:end="8.5211038"
           sodipodi:start="5.6129784"
           style="fill:#f4d7d7;fill-opacity:1;display:inline"
           transform="matrix(1.5340206,0,0,-1.5340206,-493.74552,1741.1636)"
           d="m 539.03253,513.87277 c 31.88095,40.2237 25.1178,98.67607 -15.1059,130.55701 -33.73287,26.73637 -81.41098,26.80991 -115.22616,0.17772"
           sodipodi:ry="92.933632"
           sodipodi:rx="92.933632"
           sodipodi:cy="571.59833"
           sodipodi:cx="466.20108"
           id="path7856"
           sodipodi:type="arc"
           sodipodi:open="true" />
        <path
           inkscape:connector-curvature="0"
           id="path7858"
           d="m 109.84836,775.87936 c -6.25311,7.83013 -11.594839,16.17897 -15.968754,24.90625 -1.559124,3.11092 -2.993637,6.27091 -4.3125,9.46875 -0.439621,1.06595 -0.868383,2.1442 -1.28125,3.21875 -0.412867,1.07455 -0.801415,2.13612 -1.1875,3.21875 -0.361056,1.01777 -0.7256,2.03912 -1.0625,3.0625 -0.102505,0.30939 -0.180908,0.62753 -0.28125,0.9375 -0.23841,0.74146 -0.492951,1.47461 -0.71875,2.21875 -0.0347,0.11351 -0.05934,0.23017 -0.09375,0.34375 -0.299754,0.99689 -0.59781,1.99868 -0.875,3 -0.617581,2.23095 -1.181577,4.46884 -1.6875,6.71875 -0.01693,0.0744 -0.04569,0.14429 -0.0625,0.21875 -0.234612,1.05122 -0.44592,2.1016 -0.65625,3.15625 -8.637256,43.30968 3.193813,89.34104 33.750004,123.28125 l 90.40625,-87.5 -95.96875,-96.25 z"
           style="fill:#483737;fill-opacity:1;display:inline" />
      </g>
    </clipPath>
  </defs>
  <sodipodi:namedview
     id="base"
     pagecolor="#ffffff"
     bordercolor="#666666"
     borderopacity="1.0"
     inkscape:pageopacity="0.0"
     inkscape:pageshadow="2"
     inkscape:zoom="2.3138359"
     inkscape:cx="211.45215"
     inkscape:cy="863.74344"
     inkscape:document-units="px"
     inkscape:current-layer="layer1"
     showgrid="true"
     showborder="true"
     inkscape:snap-page="false"
     inkscape:snap-grids="true"
     showguides="true"
     inkscape:guide-bbox="true"
     inkscape:window-width="1920"
     inkscape:window-height="1153"
     inkscape:window-x="-4"
     inkscape:window-y="-4"
     inkscape:window-maximized="1">
    <inkscape:grid
       type="xygrid"
       id="grid3860"
       empspacing="5"
       visible="true"
       enabled="true"
       snapvisiblegridlinesonly="true" />
    <sodipodi:guide
       orientation="0,1"
       position="-135,430"
       id="guide3862" />
    <sodipodi:guide
       orientation="0,1"
       position="-160,230"
       id="guide3864" />
  </sodipodi:namedview>
  <metadata
     id="metadata7">
    <rdf:RDF>
      <cc:Work
         rdf:about="">
        <dc:format>image/svg+xml</dc:format>
        <dc:type
           rdf:resource="http://purl.org/dc/dcmitype/StillImage" />
        <dc:title></dc:title>
      </cc:Work>
    </rdf:RDF>
  </metadata>
  <g
     inkscape:label="Layer 1"
     inkscape:groupmode="layer"
     id="layer1">
    <g
       id="g7826"
       clip-path="url(#clipPath7850)"
       inkscape:export-filename="C:\bm3719\logo.png"
       inkscape:export-xdpi="90"
       inkscape:export-ydpi="90"
       transform="translate(139.59503,-579.55709)">
      <text
         sodipodi:linespacing="125%"
         id="text2985"
         y="462.45282"
         x="272.95996"
         style="font-size:40px;font-style:normal;font-weight:normal;line-height:125%;letter-spacing:0px;word-spacing:0px;fill:#000000;fill-opacity:1;stroke:none;font-family:Sans"
         xml:space="preserve"><tspan
           id="tspan2987"
           sodipodi:role="line"
           x="272.95996"
           y="462.45282" /></text>
      <path
         style="fill:#393b4d;fill-opacity:1"
         transform="matrix(1.5340206,0,0,1.5340206,-711.18147,-153.8902)"
         d="m 559.13471,571.59833 c 0,51.32583 -41.6078,92.93363 -92.93363,92.93363 -51.32583,0 -92.93363,-41.6078 -92.93363,-92.93363 0,-51.32583 41.6078,-92.93363 92.93363,-92.93363 51.32583,0 92.93363,41.6078 92.93363,92.93363 z"
         sodipodi:ry="92.933632"
         sodipodi:rx="92.933632"
         sodipodi:cy="571.59833"
         sodipodi:cx="466.20108"
         id="path2996"
         sodipodi:type="arc" />
      <path
         transform="matrix(6.7174633,0,0,6.7174633,1403.5614,-3973.1806)"
         sodipodi:end="3.9269908"
         sodipodi:start="2.3561945"
         d="m -223.23957,714.21569 c -8.35408,-8.35408 -8.35408,-21.89871 0,-30.25279 l 15.1264,15.12639 z"
         sodipodi:ry="21.391956"
         sodipodi:rx="21.391956"
         sodipodi:cy="699.08929"
         sodipodi:cx="-208.11317"
         id="path3782"
         style="fill:#1d1e27;fill-opacity:1"
         sodipodi:type="arc" />
      <path
         sodipodi:type="arc"
         style="fill:#393b4d;fill-opacity:1"
         id="path3792"
         sodipodi:cx="-208.11317"
         sodipodi:cy="699.08929"
         sodipodi:rx="21.391956"
         sodipodi:ry="21.391956"
         d="m -223.23957,714.21569 c -8.35408,-8.35408 -8.35408,-21.89871 0,-30.25279 l 15.1264,15.12639 z"
         sodipodi:start="2.3561945"
         sodipodi:end="3.9269908"
         transform="matrix(5.6279854,0,0,5.6279854,1177.3484,-3211.4316)" />
      <text
         sodipodi:linespacing="125%"
         id="text2985-1"
         y="878.34619"
         x="289.45453"
         style="font-size:40px;font-style:normal;font-weight:normal;line-height:125%;letter-spacing:0px;word-spacing:0px;fill:#000000;fill-opacity:1;stroke:none;font-family:Sans"
         xml:space="preserve"><tspan
           id="tspan2987-7"
           sodipodi:role="line"
           x="289.45453"
           y="878.34619" /></text>
      <path
         transform="matrix(-6.7174633,0,0,6.7174633,-1395.6265,-3973.1806)"
         sodipodi:end="3.9269908"
         sodipodi:start="2.3561945"
         d="m -223.23957,714.21569 c -8.35408,-8.35408 -8.35408,-21.89871 0,-30.25279 l 15.1264,15.12639 z"
         sodipodi:ry="21.391956"
         sodipodi:rx="21.391956"
         sodipodi:cy="699.08929"
         sodipodi:cx="-208.11317"
         id="path3782-0-4"
         style="fill:#1d1e27;fill-opacity:1"
         sodipodi:type="arc" />
      <path
         sodipodi:type="arc"
         style="fill:#393b4d;fill-opacity:1"
         id="path3792-9-8"
         sodipodi:cx="-208.11317"
         sodipodi:cy="699.08929"
         sodipodi:rx="21.391956"
         sodipodi:ry="21.391956"
         d="m -223.23957,714.21569 c -8.35408,-8.35408 -8.35408,-21.89871 0,-30.25279 l 15.1264,15.12639 z"
         sodipodi:start="2.3561945"
         sodipodi:end="3.9269908"
         transform="matrix(-5.6136996,0,0,5.6136996,-1166.4405,-3201.4446)" />
    </g>
  </g>
</svg>
